<?xml version="1.0" encoding="UTF-8"?>
<!--Generator: Apple Native CoreSVG 232.5-->
<!DOCTYPE svg
PUBLIC "-//W3C//DTD SVG 1.1//EN"
       "http://www.w3.org/Graphics/SVG/1.1/DTD/svg11.dtd">
<svg version="1.1" xmlns="http://www.w3.org/2000/svg" xmlns:xlink="http://www.w3.org/1999/xlink" width="50.1465" height="49.8291">
 <g>
  <rect height="49.8291" opacity="0" width="50.1465" x="0" y="0"/>
  <path d="M24.9023 49.8047C38.5254 49.8047 49.8047 38.501 49.8047 24.9023C49.8047 11.2793 38.501 0 24.8779 0C11.2793 0 0 11.2793 0 24.9023C0 38.501 11.3037 49.8047 24.9023 49.8047ZM24.9023 45.6543C13.3789 45.6543 4.1748 36.4258 4.1748 24.9023C4.1748 13.3789 13.3545 4.15039 24.8779 4.15039C36.4014 4.15039 45.6543 13.3789 45.6543 24.9023C45.6543 36.4258 36.4258 45.6543 24.9023 45.6543Z" fill="#ffffff" fill-opacity="0.85"/>
  <path d="M14.6729 37.207L28.6865 30.3711C29.4678 29.9805 30.0049 29.4434 30.3955 28.6865L37.207 14.6973C37.9883 13.0371 36.792 11.7432 35.083 12.5977L21.1182 19.4092C20.3613 19.751 19.8486 20.2637 19.4336 21.0938L12.5732 35.1074C11.792 36.7188 13.0615 37.9883 14.6729 37.207ZM24.9023 27.9053C23.2422 27.9053 21.9238 26.5625 21.9238 24.9268C21.9238 23.2666 23.2422 21.9238 24.9023 21.9238C26.5625 21.9238 27.9053 23.2666 27.9053 24.9268C27.9053 26.5625 26.5625 27.9053 24.9023 27.9053Z" fill="#ffffff" fill-opacity="0.85"/>
 </g>
</svg>
