<?xml version="1.0" encoding="UTF-8"?>
<!--Generator: Apple Native CoreSVG 232.5-->
<!DOCTYPE svg
PUBLIC "-//W3C//DTD SVG 1.1//EN"
       "http://www.w3.org/Graphics/SVG/1.1/DTD/svg11.dtd">
<svg version="1.1" xmlns="http://www.w3.org/2000/svg" xmlns:xlink="http://www.w3.org/1999/xlink" width="57.9102" height="45.0439">
 <g>
  <rect height="45.0439" opacity="0" width="57.9102" x="0" y="0"/>
  <path d="M4.95605 45.0439L52.6123 45.0439C55.6396 45.0439 57.5684 43.1152 57.5684 40.1611L57.5684 4.93164C57.5684 2.00195 55.6396 0.0732422 52.6123 0.0732422L4.95605 0.0732422C1.95312 0.0732422 0 2.00195 0 4.93164L0 40.1611C0 43.1152 1.95312 45.0439 4.95605 45.0439ZM4.98047 41.1133C4.19922 41.1133 3.68652 40.5762 3.68652 39.8438L3.68652 37.085C3.68652 36.4014 4.1748 35.9131 4.88281 35.9131L8.03223 35.9131C8.74023 35.9131 9.2041 36.4014 9.2041 37.085L9.2041 39.917C9.2041 40.6006 8.74023 41.1133 8.03223 41.1133ZM4.88281 33.0322C4.1748 33.0322 3.68652 32.4951 3.68652 31.8604L3.68652 29.0771C3.68652 28.3447 4.15039 27.8809 4.88281 27.8809L8.03223 27.8809C8.74023 27.8809 9.2041 28.3447 9.2041 29.0771L9.2041 31.8604C9.2041 32.4951 8.74023 33.0322 8.03223 33.0322ZM4.88281 25.1221C4.1748 25.1221 3.68652 24.6094 3.68652 23.9746L3.68652 21.1914C3.68652 20.459 4.15039 19.9951 4.88281 19.9951L8.03223 19.9951C8.74023 19.9951 9.2041 20.459 9.2041 21.1914L9.2041 23.9746C9.2041 24.6094 8.74023 25.1221 8.03223 25.1221ZM4.88281 17.2852C4.1748 17.2852 3.68652 16.748 3.68652 16.1377L3.68652 13.3301C3.68652 12.6221 4.15039 12.1338 4.88281 12.1338L8.03223 12.1338C8.74023 12.1338 9.2041 12.6221 9.2041 13.3301L9.2041 16.1377C9.2041 16.748 8.74023 17.2852 8.03223 17.2852ZM4.88281 9.2041C4.1748 9.2041 3.68652 8.69141 3.68652 8.05664L3.68652 5.29785C3.68652 4.5166 4.19922 4.00391 4.98047 4.00391L8.03223 4.00391C8.74023 4.00391 9.2041 4.49219 9.2041 5.2002L9.2041 8.05664C9.2041 8.69141 8.74023 9.2041 8.03223 9.2041ZM13.8184 41.1133C13.0859 41.1133 12.6465 40.6738 12.6465 39.9414L12.6465 25.708C12.6465 25 13.0859 24.5605 13.8184 24.5605L43.7744 24.5605C44.4824 24.5605 44.9219 25 44.9219 25.708L44.9219 39.9414C44.9219 40.6738 44.4824 41.1133 43.7744 41.1133ZM13.8184 20.6055C13.0859 20.6055 12.6465 20.1904 12.6465 19.458L12.6465 5.12695C12.6465 4.39453 13.0859 4.00391 13.8184 4.00391L43.7744 4.00391C44.4824 4.00391 44.9219 4.39453 44.9219 5.12695L44.9219 19.458C44.9219 20.1904 44.4824 20.6055 43.7744 20.6055ZM49.5361 41.1133C48.8281 41.1133 48.3643 40.6006 48.3643 39.917L48.3643 37.085C48.3643 36.4014 48.8281 35.9131 49.5361 35.9131L52.6855 35.9131C53.418 35.9131 53.8818 36.4014 53.8818 37.085L53.8818 39.8438C53.8818 40.5762 53.3936 41.1133 52.5879 41.1133ZM49.5361 33.0322C48.8281 33.0322 48.3643 32.4951 48.3643 31.8604L48.3643 29.0771C48.3643 28.3447 48.8281 27.8809 49.5361 27.8809L52.6855 27.8809C53.418 27.8809 53.8818 28.3447 53.8818 29.0771L53.8818 31.8604C53.8818 32.4951 53.418 33.0322 52.6855 33.0322ZM49.5361 25.1221C48.8281 25.1221 48.3643 24.6094 48.3643 23.9746L48.3643 21.1914C48.3643 20.459 48.8281 19.9951 49.5361 19.9951L52.6855 19.9951C53.418 19.9951 53.8818 20.459 53.8818 21.1914L53.8818 23.9746C53.8818 24.6094 53.418 25.1221 52.6855 25.1221ZM49.5361 17.2852C48.8281 17.2852 48.3643 16.748 48.3643 16.1377L48.3643 13.3301C48.3643 12.6221 48.8281 12.1338 49.5361 12.1338L52.6855 12.1338C53.418 12.1338 53.8818 12.6221 53.8818 13.3301L53.8818 16.1377C53.8818 16.748 53.418 17.2852 52.6855 17.2852ZM49.5361 9.2041C48.8281 9.2041 48.3643 8.69141 48.3643 8.05664L48.3643 5.2002C48.3643 4.49219 48.8281 4.00391 49.5361 4.00391L52.5879 4.00391C53.3936 4.00391 53.8818 4.5166 53.8818 5.29785L53.8818 8.05664C53.8818 8.69141 53.418 9.2041 52.6855 9.2041Z" fill="#ffffff" fill-opacity="0.85"/>
 </g>
</svg>
