<?xml version="1.0" encoding="UTF-8"?>
<!--Generator: Apple Native CoreSVG 232.5-->
<!DOCTYPE svg
PUBLIC "-//W3C//DTD SVG 1.1//EN"
       "http://www.w3.org/Graphics/SVG/1.1/DTD/svg11.dtd">
<svg version="1.1" xmlns="http://www.w3.org/2000/svg" xmlns:xlink="http://www.w3.org/1999/xlink" width="48.8281" height="46.3135">
 <g>
  <rect height="46.3135" opacity="0" width="48.8281" x="0" y="0"/>
  <path d="M0 16.2354C0 26.6357 8.71582 36.8652 22.4854 45.6543C22.998 45.9717 23.7305 46.3135 24.2432 46.3135C24.7559 46.3135 25.4883 45.9717 26.0254 45.6543C39.7705 36.8652 48.4863 26.6357 48.4863 16.2354C48.4863 7.59277 42.5537 1.48926 34.6436 1.48926C30.127 1.48926 26.4648 3.6377 24.2432 6.93359C22.0703 3.66211 18.3594 1.48926 13.8428 1.48926C5.93262 1.48926 0 7.59277 0 16.2354ZM3.93066 16.2354C3.93066 9.74121 8.12988 5.41992 13.7939 5.41992C18.3838 5.41992 21.0205 8.27637 22.583 10.7178C23.2422 11.6943 23.6572 11.9629 24.2432 11.9629C24.8291 11.9629 25.1953 11.6699 25.9033 10.7178C27.5879 8.3252 30.127 5.41992 34.6924 5.41992C40.3564 5.41992 44.5557 9.74121 44.5557 16.2354C44.5557 25.3174 34.9609 35.1074 24.7559 41.8945C24.5117 42.0654 24.3408 42.1875 24.2432 42.1875C24.1455 42.1875 23.9746 42.0654 23.7549 41.8945C13.5254 35.1074 3.93066 25.3174 3.93066 16.2354Z" fill="#ffffff" fill-opacity="0.85"/>
 </g>
</svg>
