<?xml version="1.0" encoding="UTF-8"?>
<!--Generator: Apple Native CoreSVG 232.5-->
<!DOCTYPE svg
PUBLIC "-//W3C//DTD SVG 1.1//EN"
       "http://www.w3.org/Graphics/SVG/1.1/DTD/svg11.dtd">
<svg version="1.1" xmlns="http://www.w3.org/2000/svg" xmlns:xlink="http://www.w3.org/1999/xlink" width="58.6182" height="55.4077">
 <g>
  <rect height="55.4077" opacity="0" width="58.6182" x="0" y="0"/>
  <path d="M22.0947 48.761L36.1816 48.761L36.1816 30.9875C36.1816 29.8645 35.4492 29.1321 34.3262 29.1321L23.9746 29.1321C22.8271 29.1321 22.0947 29.8645 22.0947 30.9875ZM12.5488 51.2756L45.5811 51.2756C49.0479 51.2756 51.0742 49.2981 51.0742 45.8801L51.0742 18.9026L47.1436 16.217L47.1436 44.8792C47.1436 46.4661 46.2891 47.345 44.751 47.345L13.3789 47.345C11.8164 47.345 10.9619 46.4661 10.9619 44.8792L10.9619 16.2415L7.03125 18.9026L7.03125 45.8801C7.03125 49.2981 9.05762 51.2756 12.5488 51.2756ZM0 24.1028C0 25.1038 0.78125 26.0559 2.09961 26.0559C2.7832 26.0559 3.34473 25.6897 3.85742 25.2747L28.2959 4.76685C28.833 4.27856 29.4922 4.27856 30.0293 4.76685L54.4678 25.2747C54.9561 25.6897 55.5176 26.0559 56.2012 26.0559C57.3486 26.0559 58.2764 25.3479 58.2764 24.176C58.2764 23.4436 58.0322 22.9553 57.5195 22.5159L32.1045 1.15356C30.2979-0.384521 28.0518-0.384521 26.2207 1.15356L0.78125 22.5159C0.244141 22.9553 0 23.5413 0 24.1028ZM44.9463 13.092L51.0742 18.2678L51.0742 6.98853C51.0742 5.91431 50.3906 5.23071 49.3164 5.23071L46.7041 5.23071C45.6543 5.23071 44.9463 5.91431 44.9463 6.98853Z" fill="#ffffff" fill-opacity="0.85"/>
 </g>
</svg>
