<?xml version="1.0" encoding="UTF-8"?>
<!--Generator: Apple Native CoreSVG 232.5-->
<!DOCTYPE svg
PUBLIC "-//W3C//DTD SVG 1.1//EN"
       "http://www.w3.org/Graphics/SVG/1.1/DTD/svg11.dtd">
<svg version="1.1" xmlns="http://www.w3.org/2000/svg" xmlns:xlink="http://www.w3.org/1999/xlink" width="48.0469" height="48.1689">
 <g>
  <rect height="48.1689" opacity="0" width="48.0469" x="0" y="0"/>
  <path d="M0 19.4824C0 30.2246 8.74023 38.9648 19.4824 38.9648C23.7305 38.9648 27.6123 37.5977 30.8105 35.3027L42.8223 47.3389C43.3838 47.9004 44.1162 48.1689 44.8975 48.1689C46.5576 48.1689 47.7051 46.9238 47.7051 45.2881C47.7051 44.5068 47.4121 43.7988 46.8994 43.2861L34.9609 31.2744C37.4756 28.0029 38.9648 23.9258 38.9648 19.4824C38.9648 8.74023 30.2246 0 19.4824 0C8.74023 0 0 8.74023 0 19.4824ZM4.1748 19.4824C4.1748 11.0352 11.0352 4.1748 19.4824 4.1748C27.9297 4.1748 34.79 11.0352 34.79 19.4824C34.79 27.9297 27.9297 34.79 19.4824 34.79C11.0352 34.79 4.1748 27.9297 4.1748 19.4824Z" fill="#ffffff" fill-opacity="0.85"/>
 </g>
</svg>
