<?xml version="1.0" encoding="UTF-8"?>
<!--Generator: Apple Native CoreSVG 232.5-->
<!DOCTYPE svg
PUBLIC "-//W3C//DTD SVG 1.1//EN"
       "http://www.w3.org/Graphics/SVG/1.1/DTD/svg11.dtd">
<svg version="1.1" xmlns="http://www.w3.org/2000/svg" xmlns:xlink="http://www.w3.org/1999/xlink" width="55.7129" height="51.1475">
 <g>
  <rect height="51.1475" opacity="0" width="55.7129" x="0" y="0"/>
  <path d="M10.5957 51.1475C13.8916 51.1475 20.6299 47.8271 25.5859 44.2871C42.6025 44.751 55.3711 34.9854 55.3711 22.1924C55.3711 9.91211 43.0664 0 27.6855 0C12.3047 0 0 9.91211 0 22.1924C0 30.2002 5.12695 37.3047 12.8418 40.8691C11.7432 42.9932 9.69238 45.874 8.59375 47.3145C7.2998 49.0234 8.08105 51.1475 10.5957 51.1475ZM13.1592 47.0947C12.9639 47.168 12.8906 47.0215 13.0127 46.8506C14.3799 45.166 16.333 42.627 17.1631 41.0645C17.8467 39.7949 17.6758 38.6719 16.1133 37.9395C8.44727 34.375 4.05273 28.6865 4.05273 22.1924C4.05273 12.1826 14.5264 4.02832 27.6855 4.02832C40.8691 4.02832 51.3428 12.1826 51.3428 22.1924C51.3428 32.1777 40.8691 40.332 27.6855 40.332C27.1973 40.332 26.4404 40.3076 25.4639 40.2832C24.4385 40.2832 23.6572 40.6006 22.7295 41.333C19.7266 43.5059 15.3809 46.1914 13.1592 47.0947Z" fill="#ffffff" fill-opacity="0.85"/>
  <path d="M16.3818 22.4365C16.3818 23.6084 17.2119 24.4385 18.457 24.4385L25.6348 24.4385L25.6348 31.6406C25.6348 32.8613 26.4648 33.7158 27.6611 33.7158C28.8818 33.7158 29.7363 32.8613 29.7363 31.6406L29.7363 24.4385L36.9385 24.4385C38.1592 24.4385 39.0137 23.6084 39.0137 22.4365C39.0137 21.1914 38.1592 20.3369 36.9385 20.3369L29.7363 20.3369L29.7363 13.1836C29.7363 11.9141 28.8818 11.084 27.6611 11.084C26.4648 11.084 25.6348 11.9141 25.6348 13.1836L25.6348 20.3369L18.457 20.3369C17.2119 20.3369 16.3818 21.1914 16.3818 22.4365Z" fill="#ffffff" fill-opacity="0.85"/>
 </g>
</svg>
