<?xml version="1.0" encoding="UTF-8"?>
<!--Generator: Apple Native CoreSVG 232.5-->
<!DOCTYPE svg
PUBLIC "-//W3C//DTD SVG 1.1//EN"
       "http://www.w3.org/Graphics/SVG/1.1/DTD/svg11.dtd">
<svg version="1.1" xmlns="http://www.w3.org/2000/svg" xmlns:xlink="http://www.w3.org/1999/xlink" width="45.3613" height="45.0439">
 <g>
  <rect height="45.0439" opacity="0" width="45.3613" x="0" y="0"/>
  <path d="M42.1631 2.88086C39.6729 0.390625 36.1572 0 31.9824 0L12.9639 0C8.8623 0 5.34668 0.390625 2.85645 2.88086C0.366211 5.37109 0 8.8623 0 12.9639L0 31.9824C0 36.1572 0.366211 39.6484 2.85645 42.1387C5.34668 44.6289 8.8623 45.0195 13.0127 45.0195L31.9824 45.0195C36.1572 45.0195 39.6729 44.6289 42.1631 42.1387C44.6533 39.6484 45.0195 36.1572 45.0195 31.9824L45.0195 13.0127C45.0195 8.83789 44.6533 5.37109 42.1631 2.88086ZM41.0889 12.3535L41.0889 32.666C41.0889 35.1807 40.7715 37.793 39.2822 39.2578C37.8174 40.7471 35.1807 41.0889 32.666 41.0889L12.3535 41.0889C9.83887 41.0889 7.20215 40.7471 5.71289 39.2578C4.24805 37.793 3.93066 35.1807 3.93066 32.666L3.93066 12.4268C3.93066 9.83887 4.24805 7.22656 5.71289 5.7373C7.20215 4.27246 9.86328 3.93066 12.4268 3.93066L32.666 3.93066C35.1807 3.93066 37.8174 4.27246 39.2822 5.76172C40.7715 7.22656 41.0889 9.83887 41.0889 12.3535Z" fill="#ffffff" fill-opacity="0.85"/>
  <path d="M11.2061 22.5098C11.2061 23.7061 12.0605 24.5117 13.3057 24.5117L20.4834 24.5117L20.4834 31.7139C20.4834 32.9346 21.2891 33.7891 22.4854 33.7891C23.7061 33.7891 24.5605 32.959 24.5605 31.7139L24.5605 24.5117L31.7627 24.5117C32.9834 24.5117 33.8379 23.7061 33.8379 22.5098C33.8379 21.2891 32.9834 20.4346 31.7627 20.4346L24.5605 20.4346L24.5605 13.2568C24.5605 12.0117 23.7061 11.1572 22.4854 11.1572C21.2891 11.1572 20.4834 12.0117 20.4834 13.2568L20.4834 20.4346L13.3057 20.4346C12.0361 20.4346 11.2061 21.2891 11.2061 22.5098Z" fill="#ffffff" fill-opacity="0.85"/>
 </g>
</svg>
