<?xml version="1.0" encoding="UTF-8"?>
<!--Generator: Apple Native CoreSVG 232.5-->
<!DOCTYPE svg
PUBLIC "-//W3C//DTD SVG 1.1//EN"
       "http://www.w3.org/Graphics/SVG/1.1/DTD/svg11.dtd">
<svg version="1.1" xmlns="http://www.w3.org/2000/svg" xmlns:xlink="http://www.w3.org/1999/xlink" width="65.8691" height="47.1869">
 <g>
  <rect height="47.1869" opacity="0" width="65.8691" x="0" y="0"/>
  <path d="M56.0059 46.8234C56.8359 47.4338 58.0322 47.1896 58.6914 46.2131C62.9639 40.0363 65.5273 32.1994 65.5273 23.5812C65.5273 14.9387 62.8906 7.15058 58.6914 0.949409C58.0322-0.0515674 56.8359-0.271294 56.0059 0.339058C55.0781 0.973823 54.9561 2.12128 55.6152 3.12226C59.3994 8.71308 61.792 15.7443 61.792 23.5812C61.792 31.3937 59.3994 38.4738 55.6152 44.0402C54.9561 45.0412 55.0781 46.1887 56.0059 46.8234Z" fill="#ffffff" fill-opacity="0.85"/>
  <path d="M46.8506 40.3537C47.7539 40.9641 48.877 40.7443 49.5361 39.8166C52.6611 35.5197 54.4922 29.6115 54.4922 23.5812C54.4922 17.551 52.6855 11.5939 49.5361 7.34589C48.877 6.41816 47.7539 6.19843 46.8506 6.80878C45.9473 7.41914 45.8008 8.5666 46.5088 9.56757C49.1699 13.3273 50.708 18.381 50.708 23.5812C50.708 28.7814 49.1211 33.7863 46.5088 37.5949C45.8252 38.5959 45.9473 39.7434 46.8506 40.3537Z" fill="#ffffff" fill-opacity="0.85"/>
  <path d="M37.793 33.9816C38.5986 34.5432 39.7461 34.3723 40.4053 33.4201C42.2852 30.9543 43.4082 27.3166 43.4082 23.5812C43.4082 19.8459 42.2852 16.2326 40.4053 13.7424C39.7461 12.7902 38.5986 12.5949 37.793 13.1809C36.792 13.8644 36.6455 15.0852 37.4023 16.0861C38.8184 18.0393 39.624 20.7492 39.624 23.5812C39.624 26.4133 38.7939 29.0988 37.4023 31.0764C36.6699 32.1018 36.792 33.2736 37.793 33.9816Z" fill="#ffffff" fill-opacity="0.85"/>
  <path d="M26.3184 45.1389C27.9297 45.1389 29.0771 43.9914 29.0771 42.4045L29.0771 4.95332C29.0771 3.3664 27.9297 2.07246 26.2695 2.07246C25.1221 2.07246 24.3408 2.56074 23.1201 3.75703L12.6953 13.5227C12.5488 13.6691 12.3291 13.7424 12.085 13.7424L5.10254 13.7424C1.78223 13.7424 0 15.5734 0 19.0891L0 28.1711C0 31.7111 1.78223 33.5178 5.10254 33.5178L12.085 33.5178C12.3291 33.5178 12.5488 33.591 12.6953 33.7375L23.1201 43.6008C24.2188 44.675 25.1709 45.1389 26.3184 45.1389Z" fill="#ffffff" fill-opacity="0.85"/>
 </g>
</svg>
