<?xml version="1.0" encoding="UTF-8"?>
<!--Generator: Apple Native CoreSVG 232.5-->
<!DOCTYPE svg
PUBLIC "-//W3C//DTD SVG 1.1//EN"
       "http://www.w3.org/Graphics/SVG/1.1/DTD/svg11.dtd">
<svg version="1.1" xmlns="http://www.w3.org/2000/svg" xmlns:xlink="http://www.w3.org/1999/xlink" width="51.9959" height="54.9928">
 <g>
  <rect height="54.9928" opacity="0" width="51.9959" x="0" y="0"/>
  <path d="M37.4254 47.114C37.1071 48.269 36.0972 49.0418 34.7748 49.0418C33.6517 49.0418 32.6996 48.5779 31.5766 47.5037L21.1762 37.6404C21.0053 37.494 20.81 37.4207 20.5658 37.4207L13.559 37.4207C10.2631 37.4207 8.45644 35.6141 8.45644 32.074L8.45644 22.992C8.45644 21.4032 8.82542 20.1584 9.53755 19.2749ZM37.5336 8.85626L37.5336 33.8395L21.1392 17.4547C21.1519 17.4459 21.1641 17.436 21.1762 17.4256L31.5766 7.65997C32.8217 6.46368 33.6029 5.9754 34.726 5.9754C36.3861 5.9754 37.5336 7.26935 37.5336 8.85626Z" fill="#ffffff" fill-opacity="0.85"/>
  <path d="M45.9564 51.6053C46.6889 52.3377 47.8851 52.3377 48.6176 51.6053C49.3256 50.8484 49.35 49.6766 48.6176 48.9442L6.79628 7.14728C6.06386 6.41485 4.84316 6.41485 4.11073 7.14728C3.40273 7.85528 3.40273 9.1004 4.11073 9.80841Z" fill="#ffffff" fill-opacity="0.85"/>
 </g>
</svg>
